<svg width="1554" height="344" viewBox="0 0 1554 344" fill="none" xmlns="http://www.w3.org/2000/svg">
<path d="M1196.88 70.8401C1205.55 70.3899 1217.31 70.7446 1226.22 70.7527C1227.27 86.3627 1226.6 107.404 1226.75 123.508C1226.88 136.61 1227.43 158.361 1226.35 170.741C1228.4 167.937 1230.49 165.156 1232.6 162.4C1244.11 147.541 1257.35 138.224 1276.54 136.034C1358.46 126.688 1383.08 221.287 1362.94 284.306C1358.84 297.135 1353.45 306.366 1345.12 317.055C1338.68 323.892 1334.25 328.313 1326.1 333.16C1309.12 343.233 1288.84 346.141 1269.72 341.242C1247.96 335.638 1236.31 322.104 1225.43 303.725C1226.33 312.207 1225.59 329.966 1225.46 339.138C1216.8 338.673 1205.58 339.151 1196.71 339.326C1195.49 325.492 1196.28 296.213 1196.27 281.213L1196.28 168.405L1196.28 101.341C1196.28 95.8831 1195.97 74.958 1196.88 70.8401ZM1288.11 315.616C1303.46 313.108 1315.51 308.116 1324.39 294.76C1351.99 253.237 1344.3 158.738 1278.38 162.532C1232.39 168.025 1222.61 215.949 1227.07 254.754C1231.17 290.5 1250.48 316.088 1288.11 315.616Z" fill="#161820"/>
<path d="M1058.74 135.519C1060.24 135.212 1068.47 135.053 1070.59 135.08C1091.02 135.344 1111.01 140.113 1125.8 155.01C1140.46 169.78 1143.84 187.681 1143.92 207.685C1143.98 221.052 1144.07 234.474 1144.07 247.854L1144.26 338.878C1135.43 338.247 1123.69 338.736 1114.6 338.906C1114.04 329.193 1114 319.714 1113.91 309.989C1107.2 322.099 1096.72 331.692 1084.07 337.31C1049.83 352.417 1005.67 339.73 989.932 304C989.757 303.505 989.581 303.006 989.428 302.504C984.854 288.08 984.396 269.18 991.666 255.842C1013.31 217.785 1066.57 225.699 1102.83 215.303C1117.25 211.167 1114.27 197.824 1110.94 186.778C1103.01 160.526 1071.77 156.985 1049.27 164.238C1034.89 168.873 1026.7 178.198 1020.1 191.381C1011.53 188.611 1001.36 186.543 992.315 183.786C999.646 153.886 1030.45 138.646 1058.74 135.519ZM1028.85 307.345C1033.99 311.056 1038.23 312.947 1044.44 314.351C1066.47 319.338 1089.87 314.222 1103.65 295.257C1115.75 278.607 1114.04 259.941 1113.33 240.451C1113.3 239.555 1113.33 238.54 1113.16 237.673C1097.32 244.584 1077.36 245.361 1060.3 248.319C1044.56 251.049 1025.97 253.651 1019.16 270.748C1013.71 284.43 1018.11 297.923 1028.85 307.345Z" fill="#161820"/>
<path d="M1471.72 135.919C1482.25 133.441 1506.21 137.488 1516.33 142.993C1535.05 153.174 1543.23 164.64 1549.79 184.148C1540.83 186.296 1531.9 188.561 1523.01 190.945C1511.89 170.109 1504.29 162.909 1479.29 161.583C1461.07 160.616 1436.27 172.385 1437.75 193.431C1439.83 223.077 1490.47 222.131 1512.83 231.225C1536.67 240.922 1553.29 254.258 1553.75 282.493C1553.33 325.145 1513.35 343.494 1476.38 343.567C1438.28 343.143 1411.42 326.132 1401.12 288.954C1408.31 286.952 1423.32 284.34 1430.75 283.38C1433.99 292.416 1437.41 300.212 1445.1 306.43C1463.1 320.982 1501.99 319.747 1516.76 301.312C1521.41 295.436 1523.52 287.948 1522.64 280.506C1519.6 254.173 1479.53 253.534 1459.57 247.315C1446.58 243.27 1436.4 241.049 1425.31 232.109C1415.35 224.232 1409.03 212.636 1407.8 199.996C1406.22 185.863 1410.33 171.683 1419.24 160.597C1432.51 144.261 1451.49 138.025 1471.72 135.919Z" fill="#161820"/>
<path d="M800.823 74.9351C811.438 74.9578 822.046 74.9163 832.653 74.8105C833.569 154.313 831.4 235.466 833.004 314.687C873.418 315.434 915.718 314.79 956.268 314.771C956.299 323.082 956.78 335.077 956.108 343.031C904.919 343.173 852.111 342.364 801.09 343.568C800.487 333.989 800.831 320.947 800.823 311.139L800.808 254.114L800.823 74.9351Z" fill="#161820"/>
<path d="M288.572 0.707182C298.125 -0.0729024 310.514 0.479102 320.331 0.405393C341.661 0.245218 363.136 0.722535 384.455 0.0890911C385.531 7.19172 384.981 26.9101 384.97 34.8626L384.999 101.317L385.166 343.568C360.242 342.799 335.157 343.795 310.426 343.113C309.342 294.915 310.461 242.358 310.507 193.822C310.434 168.233 309.766 139.678 310.824 114.348C307.441 119.007 292.797 154.224 289.315 162.218L243.878 267.451C236.372 284.833 227.237 307.592 218.909 324.157C202.108 324.143 183.035 324.664 166.455 323.923C163.937 319.886 159.767 309.815 157.733 305.172L142.755 270.77L93.0114 156.599C89.3824 148.287 77.6807 119.748 74.0845 114.238C75.6417 134.921 74.5809 171.472 74.5931 193.512L74.4648 343.386C71.4613 343.564 67.9456 343.484 64.9237 343.422C43.5264 342.981 21.8102 343.963 0.456249 343.108C-0.365836 334.295 0.178899 316.443 0.154706 306.797L0.177715 230.592L0.118905 14.001C0.146916 11.0106 -0.225206 2.70773 1.15622 0.71039L4.24438 0.313122C33.4489 0.422579 67.1938 -0.518627 96.0111 0.422274C99.6156 6.79155 104.612 19.2915 107.769 26.5294L129.83 77.3919L192.473 221.462C195.626 216.176 201.221 202.505 203.841 196.446L224.607 148.206C245.533 100.066 268.838 49.117 288.572 0.707182Z" fill="#00F6FF"/>
<path d="M565.617 0.213004C568.15 0.116304 570.91 0.192534 573.452 0.254786C597.573 0.845379 621.929 -0.131857 646.026 0.674129C635.613 18.2702 615.109 46.4508 603.278 63.772L542.606 154.08C531.981 169.627 515.664 191.923 506.734 207.548L533.076 207.768L555.46 233.797C552.716 238.22 540.249 252.159 535.936 257.412C532.578 261.571 529.166 265.684 525.699 269.752C491.103 270.39 455.114 269.77 420.336 269.825C420.258 252.804 419.584 234.654 420.533 217.727C420.685 214.998 422.996 211.021 424.519 208.657C437.829 187.997 451.629 167.728 465.402 147.397L519.986 66.2591C526.694 56.3079 560.098 4.57455 565.617 0.213004Z" fill="#00F6FF"/>
<path d="M667.188 207.757C681.799 206.997 702.856 207.644 718.066 207.582C717.928 228.324 717.905 249.067 718 269.809C699.677 269.812 680.575 269.432 662.34 269.974C661.523 277.177 661.895 289.678 661.911 297.352C661.813 312.673 661.997 327.996 662.464 343.31L630.616 343.203C619.515 343.322 608.132 343.59 597.07 342.987L656.805 271.971C667.394 259.314 677.229 245.895 689.015 234.284C686.362 228.99 672.186 214.206 667.188 207.757Z" fill="#00F6FF"/>
<path d="M589.243 150.128C591.695 152.089 610.818 174.333 613.757 177.86C629.171 196.362 647.404 215.193 662.17 233.886C641.689 257.448 621.26 282.554 601.072 306.56C597.2 311.275 593.231 315.909 589.166 320.458C589.071 310.064 589.127 299.67 589.334 289.278C595.068 280.754 633.245 238.437 634.389 233.56C631.363 227.492 595.616 187.513 589.242 180.327C588.967 170.474 589.182 160.033 589.243 150.128Z" fill="#00F6FF"/>
<path d="M602.678 132.334C620.538 131.349 644.273 131.779 662.321 132.111C662.984 154.888 661.781 178.142 662.456 201.411C659.603 200.184 604.627 136.423 602.678 132.334Z" fill="#00F6FF"/>
<path d="M560.082 207.777C568.916 207.532 577.756 207.554 586.59 207.842C592.756 214.536 603.252 226.982 608.736 234.154C601.23 244.205 587.458 259.602 579.071 269.752C571.8 270.39 560.202 270.015 552.865 269.797C558.578 260.926 578.543 240.857 581.136 233.312C579.856 228.79 564.368 212.794 560.082 207.777Z" fill="#00F6FF"/>
<path d="M535.018 291.827C541.537 291.153 554.114 291.516 560.743 291.755C556.737 297.284 545.985 309.139 541.338 314.845C536.746 320.485 521.871 339.414 517.326 343.277C508.441 343.373 500.533 343.422 491.654 342.973C500.109 332.041 525.578 300.372 535.018 291.827Z" fill="#00F6FF"/>
</svg>
